<svg xmlns="http://www.w3.org/2000/svg" viewBox="0 0 1200 630">
  <rect width="1200" height="630" fill="#0f0a1a"/>
  <g transform="translate(600 230)">
    <g transform="translate(-72 -72) scale(6)" stroke="#a78bfa" stroke-width="2" fill="none" stroke-linecap="round" stroke-linejoin="round">
      <path d="M17 11h1a3 3 0 0 1 0 6h-1"/>
      <path d="M9 12v6"/>
      <path d="M13 12v6"/>
      <path d="M14 7.5c-1 0-1.44.5-3 .5s-2-.5-3-.5-1.72.5-2.5.5a2.5 2.5 0 0 1 0-5c.78 0 1.57.5 2.5.5C9.44 3.5 10 3 12 3s2.56.5 4 .5c.93 0 1.72-.5 2.5-.5a2.5 2.5 0 0 1 0 5c-.78 0-1.5-.5-2.5-.5Z"/>
      <path d="M5 8v12a2 2 0 0 0 2 2h8a2 2 0 0 0 2-2V8"/>
    </g>
  </g>
  <text x="600" y="450" text-anchor="middle" font-family="system-ui,-apple-system,sans-serif" font-size="140" fill="#f3f4f6" font-weight="800" letter-spacing="-6">casky</text>
  <text x="600" y="520" text-anchor="middle" font-family="system-ui,-apple-system,sans-serif" font-size="28" fill="#9ca3af">Browse apps from Homebrew, install in one click.</text>
</svg>
